<?xml version="1.0" encoding="UTF-8"?>
<svg id="Layer_1" data-name="Layer 1" xmlns="http://www.w3.org/2000/svg" xmlns:xlink="http://www.w3.org/1999/xlink" viewBox="0 0 3334 500">
  <defs>
    <style>
      .cls-1 {
        fill: url(#linear-gradient);
      }

      .cls-2 {
        fill: #fff;
      }
    </style>
    <linearGradient id="linear-gradient" x1="1411.74" y1="499.95" x2="1425.15" y2="499.95" gradientTransform="translate(-351066.25 124532.06) scale(248.68 -248.68)" gradientUnits="userSpaceOnUse">
      <stop offset="0" stop-color="#273b85"/>
      <stop offset=".64" stop-color="#af2685"/>
      <stop offset="1" stop-color="#e43226"/>
    </linearGradient>
  </defs>
  <rect class="cls-1" width="3334" height="411.26"/>
  <g>
    <rect class="cls-2" x="2840.32" y="436.35" width="2.02" height="36.03"/>
    <polygon class="cls-2" points="2849.6 443.06 2848.12 444.44 2841.34 437.13 2834.55 444.44 2833.06 443.06 2841.34 434.16 2849.6 443.06"/>
    <rect class="cls-2" x="2840.32" y="359.93" width="2.02" height="36.03"/>
    <polygon class="cls-2" points="2849.6 366.63 2848.12 368.01 2841.34 360.71 2834.55 368.01 2833.06 366.63 2841.34 357.74 2849.6 366.63"/>
    <rect class="cls-2" x="2840.32" y="283.51" width="2.02" height="36.02"/>
    <polygon class="cls-2" points="2849.6 290.21 2848.12 291.59 2841.34 284.28 2834.55 291.59 2833.06 290.21 2841.34 281.31 2849.6 290.21"/>
    <rect class="cls-2" x="2840.32" y="207.08" width="2.02" height="36.02"/>
    <polygon class="cls-2" points="2849.6 213.78 2848.12 215.16 2841.34 207.86 2834.55 215.16 2833.06 213.78 2841.34 204.89 2849.6 213.78"/>
    <rect class="cls-2" x="2916.9" y="438.56" width="2.02" height="31.58" transform="translate(-34.9 415.23) rotate(-8.09)"/>
    <polygon class="cls-2" points="2924.81 444.19 2923.54 445.77 2915.79 439.49 2910.11 447.68 2908.44 446.52 2915.37 436.55 2924.81 444.19"/>
    <rect class="cls-2" x="2916.94" y="362.62" width="2.02" height="30.6" transform="translate(-20.03 537.71) rotate(-10.49)"/>
    <polygon class="cls-2" points="2924.52 367.96 2923.32 369.58 2915.31 363.65 2909.97 372.06 2908.26 370.97 2914.77 360.72 2924.52 367.96"/>
    <rect class="cls-2" x="2916.99" y="286.66" width="2.02" height="29.67" transform="translate(6.69 661.87) rotate(-12.96)"/>
    <polygon class="cls-2" points="2924.23 291.7 2923.09 293.38 2914.84 287.79 2909.87 296.43 2908.11 295.42 2914.18 284.9 2924.23 291.7"/>
    <rect class="cls-2" x="2917.04" y="210.65" width="2.02" height="28.81" transform="translate(47.97 798.04) rotate(-15.7)"/>
    <polygon class="cls-2" points="2923.94 215.4 2922.88 217.13 2914.38 211.93 2909.81 220.79 2908.01 219.87 2913.58 209.07 2923.94 215.4"/>
    <polygon class="cls-2" points="2923.49 161.58 2921.57 162.22 2912.71 135.64 2914.63 135.01 2923.49 161.58"/>
    <polygon class="cls-2" points="2923.64 139.06 2922.67 140.84 2913.92 136.06 2909.79 145.14 2907.95 144.3 2912.98 133.24 2923.64 139.06"/>
    <polygon class="cls-2" points="2999.92 467.28 2998 467.93 2989.14 441.34 2991.05 440.7 2999.92 467.28"/>
    <polygon class="cls-2" points="3000.06 444.76 2999.09 446.54 2990.35 441.75 2986.22 450.84 2984.38 449.99 2989.41 438.94 3000.06 444.76"/>
    <polygon class="cls-2" points="3001.07 389.56 2999.23 390.4 2988.2 366.13 2990.04 365.28 3001.07 389.56"/>
    <polygon class="cls-2" points="2999.42 368.38 2998.64 370.25 2989.44 366.42 2986.28 375.87 2984.36 375.23 2988.21 363.71 2999.42 368.38"/>
    <rect class="cls-2" x="2993.73" y="288.53" width="2.03" height="25.66" transform="translate(271.88 1584.06) rotate(-30.97)"/>
    <polygon class="cls-2" points="2998.68 291.85 2998.13 293.8 2988.54 291.03 2986.48 300.78 2984.5 300.36 2987.02 288.48 2998.68 291.85"/>
    <rect class="cls-2" x="2993.84" y="212.35" width="2.03" height="25.03" transform="translate(491.49 1884.04) rotate(-37.83)"/>
    <polygon class="cls-2" points="2997.81 215.19 2997.48 217.19 2987.65 215.59 2986.77 225.53 2984.75 225.34 2985.82 213.24 2997.81 215.19"/>
    <rect class="cls-2" x="2993.95" y="135.94" width="2.02" height="24.82" transform="translate(772.53 2161.45) rotate(-45.01)"/>
    <polygon class="cls-2" points="2996.76 138.46 2996.69 140.48 2986.73 140.11 2987.09 150.08 2985.07 150.15 2984.63 138.02 2996.76 138.46"/>
    <rect class="cls-2" x="3070.15" y="441.38" width="2.03" height="25.66" transform="translate(204.12 1645.18) rotate(-30.97)"/>
    <polygon class="cls-2" points="3075.11 444.7 3074.55 446.65 3064.97 443.88 3062.91 453.63 3060.93 453.21 3063.44 441.33 3075.11 444.7"/>
    <rect class="cls-2" x="3070.32" y="365.23" width="2.02" height="24.88" transform="translate(518.26 2126.25) rotate(-41.42)"/>
    <polygon class="cls-2" points="3073.73 367.89 3073.53 369.9 3063.62 368.92 3063.35 378.89 3061.33 378.83 3061.65 366.69 3073.73 367.89"/>
    <polygon class="cls-2" points="3081.98 307.98 3080.73 309.58 3060.96 294.21 3062.22 292.61 3081.98 307.98"/>
    <polygon class="cls-2" points="3071.96 290.99 3072.13 293 3062.21 293.88 3063.8 303.72 3061.81 304.05 3059.86 292.06 3071.96 290.99"/>
    <rect class="cls-2" x="3070.56" y="211.44" width="2.02" height="26.12" transform="translate(1448.26 2841.72) rotate(-62.37)"/>
    <polygon class="cls-2" points="3069.78 214.23 3070.32 216.18 3060.7 218.81 3064.01 228.21 3062.11 228.88 3058.07 217.43 3069.78 214.23"/>
    <polygon class="cls-2" points="3085.25 151.39 3084.61 153.3 3058.04 144.45 3058.67 142.52 3085.25 151.39"/>
    <polygon class="cls-2" points="3067.33 137.76 3068.17 139.6 3059.1 143.73 3063.87 152.48 3062.1 153.45 3056.27 142.79 3067.33 137.76"/>
    <rect class="cls-2" x="2840.32" y="130.66" width="2.02" height="36.03"/>
    <polygon class="cls-2" points="2849.6 137.36 2848.12 138.74 2841.34 131.43 2834.55 138.74 2833.06 137.36 2841.34 128.46 2849.6 137.36"/>
    <rect class="cls-2" x="3130.12" y="146.56" width="36.02" height="2.02"/>
    <polygon class="cls-2" points="3136.82 139.3 3138.2 140.79 3130.89 147.57 3138.2 154.36 3136.82 155.84 3127.92 147.57 3136.82 139.3"/>
    <rect class="cls-2" x="3147.1" y="208.36" width="2.02" height="31.58" transform="translate(2483.64 3309.5) rotate(-81.92)"/>
    <polygon class="cls-2" points="3140.29 214.68 3141.44 216.34 3133.25 222.03 3139.52 229.77 3137.95 231.05 3130.32 221.61 3140.29 214.68"/>
    <polygon class="cls-2" points="3161.68 304.24 3161.04 306.16 3134.46 297.29 3135.1 295.38 3161.68 304.24"/>
    <polygon class="cls-2" points="3143.75 290.61 3144.6 292.45 3135.52 296.58 3140.3 305.33 3138.52 306.3 3132.7 295.64 3143.75 290.61"/>
    <rect class="cls-2" x="3146.96" y="364.58" width="2.03" height="25.66" transform="translate(1204.79 2882.65) rotate(-59.04)"/>
    <polygon class="cls-2" points="3146.97 367.16 3147.39 369.14 3137.63 371.21 3140.41 380.79 3138.46 381.35 3135.09 369.68 3146.97 367.16"/>
    <rect class="cls-2" x="3146.79" y="441.63" width="2.02" height="24.83" transform="translate(601.02 2358.96) rotate(-45)"/>
    <polygon class="cls-2" points="3149.61 444.16 3149.54 446.18 3139.58 445.81 3139.94 455.78 3137.92 455.85 3137.47 443.72 3149.61 444.16"/>
    <rect class="cls-2" x="2840.32" y="436.35" width="2.02" height="36.03"/>
    <polygon class="cls-2" points="2849.6 443.06 2848.12 444.44 2841.34 437.13 2834.55 444.44 2833.06 443.06 2841.34 434.16 2849.6 443.06"/>
    <rect class="cls-2" x="2840.32" y="359.93" width="2.02" height="36.03"/>
    <polygon class="cls-2" points="2849.6 366.63 2848.12 368.01 2841.34 360.71 2834.55 368.01 2833.06 366.63 2841.34 357.74 2849.6 366.63"/>
    <rect class="cls-2" x="2840.32" y="283.51" width="2.02" height="36.02"/>
    <polygon class="cls-2" points="2849.6 290.21 2848.12 291.59 2841.34 284.28 2834.55 291.59 2833.06 290.21 2841.34 281.31 2849.6 290.21"/>
    <rect class="cls-2" x="2840.32" y="207.08" width="2.02" height="36.02"/>
    <polygon class="cls-2" points="2849.6 213.78 2848.12 215.16 2841.34 207.86 2834.55 215.16 2833.06 213.78 2841.34 204.89 2849.6 213.78"/>
    <rect class="cls-2" x="2748.96" y="453.35" width="31.58" height="2.02" transform="translate(1924.24 3127.15) rotate(-81.88)"/>
    <polygon class="cls-2" points="2774.22 446.53 2772.56 447.68 2766.87 439.49 2759.13 445.76 2757.85 444.19 2767.3 436.56 2774.22 446.53"/>
    <rect class="cls-2" x="2749.41" y="376.91" width="30.6" height="2.02" transform="translate(1889.92 3027.67) rotate(-79.51)"/>
    <polygon class="cls-2" points="2774.4 370.97 2772.7 372.06 2767.35 363.65 2759.35 369.59 2758.14 367.96 2767.9 360.72 2774.4 370.97"/>
    <rect class="cls-2" x="2749.82" y="300.48" width="29.67" height="2.02" transform="translate(1848.98 2927.47) rotate(-77)"/>
    <polygon class="cls-2" points="2774.55 295.42 2772.79 296.43 2767.82 287.79 2759.57 293.38 2758.43 291.71 2768.49 284.89 2774.55 295.42"/>
    <rect class="cls-2" x="2750.2" y="224.04" width="28.81" height="2.02" transform="translate(1802.31 2826.53) rotate(-74.35)"/>
    <polygon class="cls-2" points="2774.65 219.86 2772.85 220.79 2768.28 211.92 2759.77 217.14 2758.72 215.4 2769.08 209.07 2774.65 219.86"/>
    <polygon class="cls-2" points="2769.95 135.64 2761.08 162.21 2759.17 161.58 2768.03 135 2769.95 135.64"/>
    <polygon class="cls-2" points="2774.71 144.29 2772.87 145.14 2768.75 136.06 2760 140.84 2759.03 139.06 2769.68 133.24 2774.71 144.29"/>
    <polygon class="cls-2" points="2693.52 441.34 2684.66 467.92 2682.74 467.28 2691.61 440.7 2693.52 441.34"/>
    <polygon class="cls-2" points="2698.29 449.99 2696.45 450.83 2692.32 441.76 2683.57 446.54 2682.6 444.76 2693.26 438.94 2698.29 449.99"/>
    <polygon class="cls-2" points="2694.47 366.13 2683.43 390.4 2681.59 389.56 2692.62 365.28 2694.47 366.13"/>
    <polygon class="cls-2" points="2698.3 375.23 2696.38 375.87 2693.23 366.42 2684.02 370.25 2683.25 368.39 2694.46 363.71 2698.3 375.23"/>
    <rect class="cls-2" x="2675.09" y="300.35" width="25.66" height="2.03" transform="translate(1046.59 2451.19) rotate(-59.04)"/>
    <polygon class="cls-2" points="2698.16 300.36 2696.18 300.78 2694.12 291.02 2684.54 293.79 2683.98 291.85 2695.64 288.48 2698.16 300.36"/>
    <rect class="cls-2" x="2675.29" y="223.85" width="25.03" height="2.03" transform="translate(860.1 2208.38) rotate(-52.12)"/>
    <polygon class="cls-2" points="2697.91 225.35 2695.9 225.52 2695.02 215.6 2685.18 217.19 2684.85 215.2 2696.84 213.25 2697.91 225.35"/>
    <rect class="cls-2" x="2675.29" y="147.33" width="24.83" height="2.02" transform="translate(681.79 1943.35) rotate(-44.98)"/>
    <polygon class="cls-2" points="2697.59 150.15 2695.57 150.08 2695.94 140.12 2685.97 140.48 2685.9 138.46 2698.03 138.02 2697.59 150.15"/>
    <rect class="cls-2" x="2598.66" y="453.2" width="25.66" height="2.03" transform="translate(878.41 2459.86) rotate(-59.04)"/>
    <polygon class="cls-2" points="2621.74 453.21 2619.76 453.63 2617.69 443.87 2608.11 446.64 2607.56 444.7 2619.22 441.33 2621.74 453.21"/>
    <rect class="cls-2" x="2598.89" y="376.66" width="24.88" height="2.02" transform="translate(600.18 2085.57) rotate(-48.57)"/>
    <polygon class="cls-2" points="2621.33 378.83 2619.31 378.89 2619.04 368.92 2609.13 369.91 2608.93 367.9 2621.01 366.7 2621.33 378.83"/>
    <rect class="cls-2" x="2598.67" y="300.08" width="25.03" height="2.03" transform="translate(365.25 1666.64) rotate(-37.88)"/>
    <polygon class="cls-2" points="2620.86 304.05 2618.86 303.72 2620.46 293.89 2610.52 293.01 2610.71 291 2622.81 292.06 2620.86 304.05"/>
    <rect class="cls-2" x="2598.03" y="223.5" width="26.11" height="2.02" transform="translate(194 1237.36) rotate(-27.65)"/>
    <polygon class="cls-2" points="2620.55 228.88 2618.65 228.21 2621.96 218.81 2612.34 216.18 2612.88 214.23 2624.6 217.43 2620.55 228.88"/>
    <polygon class="cls-2" points="2624.62 144.45 2598.04 153.31 2597.41 151.38 2623.98 142.53 2624.62 144.45"/>
    <polygon class="cls-2" points="2620.56 153.45 2618.78 152.48 2623.56 143.74 2614.49 139.61 2615.33 137.77 2626.39 142.8 2620.56 153.45"/>
    <rect class="cls-2" x="2840.32" y="130.66" width="2.02" height="36.03"/>
    <polygon class="cls-2" points="2849.6 137.36 2848.12 138.74 2841.34 131.43 2834.55 138.74 2833.06 137.36 2841.34 128.46 2849.6 137.36"/>
    <rect class="cls-2" x="2516.52" y="146.56" width="36.02" height="2.02"/>
    <polygon class="cls-2" points="2545.84 155.84 2544.46 154.36 2551.77 147.58 2544.46 140.79 2545.84 139.3 2554.74 147.58 2545.84 155.84"/>
    <rect class="cls-2" x="2518.75" y="223.14" width="31.58" height="2.02" transform="translate(-6.24 360.46) rotate(-8.12)"/>
    <polygon class="cls-2" points="2544.71 231.05 2543.13 229.78 2549.41 222.03 2541.22 216.34 2542.38 214.68 2552.35 221.61 2544.71 231.05"/>
    <polygon class="cls-2" points="2548.2 297.3 2521.62 306.16 2520.99 304.25 2547.56 295.38 2548.2 297.3"/>
    <polygon class="cls-2" points="2544.14 306.3 2542.36 305.33 2547.14 296.59 2538.06 292.46 2538.91 290.62 2549.96 295.65 2544.14 306.3"/>
    <rect class="cls-2" x="2521.86" y="376.4" width="25.66" height="2.03" transform="translate(167.04 1357.88) rotate(-30.96)"/>
    <polygon class="cls-2" points="2544.2 381.35 2542.25 380.79 2545.02 371.21 2535.27 369.15 2535.69 367.17 2547.57 369.68 2544.2 381.35"/>
    <rect class="cls-2" x="2522.44" y="453.03" width="24.83" height="2.02" transform="translate(420.95 1924.77) rotate(-44.98)"/>
    <polygon class="cls-2" points="2544.74 455.85 2542.72 455.78 2543.09 445.82 2533.12 446.18 2533.05 444.16 2545.19 443.71 2544.74 455.85"/>
  </g>
  <g>
    <path class="cls-2" d="M190.17,230.58l-6.13-7.92,16.99-15.71h-52.37v-11.24h52.88l-17.5-16.09,6.13-7.92,32.7,25.8v7.28l-32.7,25.8Z"/>
    <g>
      <path class="cls-2" d="M230.48,246.58l15.18-86.05h15.19l-15.19,86.05h-15.18Z"/>
      <path class="cls-2" d="M287.93,206.85l-6.96,39.73h-14.55l11.26-64.16h13.79l-1.9,10.88c9.62-9.74,16.96-12.15,23.16-12.15,12.78,0,18.1,10.25,15.69,23.92l-7.34,41.51h-14.55l7.21-41.25c1.39-7.21-.89-10.63-5.95-10.63-4.05,0-9.87,2.15-19.87,12.15Z"/>
      <path class="cls-2" d="M360.82,206.47l-7.09,40.11h-14.55l11.26-64.16h13.79l-1.9,11.01c10-10,18.1-12.27,24.55-12.27l-2.53,14.55c-5.82,0-13.79.89-23.54,10.76Z"/>
      <path class="cls-2" d="M387.01,246.58l11.26-64.16h14.55l-11.26,64.16h-14.55ZM400.04,170.28l2.66-15.06h15.31l-2.66,15.06h-15.31Z"/>
      <path class="cls-2" d="M460.28,236.96c-9.11,8.73-16.32,10.88-21.89,10.88-12.27,0-18.73-12.78-15.82-31.13l.89-5.57c3.16-19.49,12.65-29.99,29.99-29.99,9.74,0,19.36,3.04,27.33,8.23l-6.83,39.1c-.38,2.53.38,5.31,4.3,5.31h1.52l-2.4,13.41h-2.4c-9.36,0-13.41-4.43-14.68-10.25ZM443.32,234.31c4.3,0,10-2.91,17.21-12.02l4.43-25.56c-3.67-1.77-6.83-2.53-10.25-2.53-9.49,0-14.68,6.58-16.32,16.96l-.89,5.57c-1.9,12.15.51,17.59,5.82,17.59Z"/>
      <path class="cls-2" d="M547.46,233.55c4.18,0,9.74-.63,18.22-3.16l3.16,13.29c-9.36,3.16-17.21,4.18-22.9,4.18-20.88,0-30.88-15.94-27.46-36.7l2.53-15.44c3.92-24.04,15.56-36.44,36.82-36.44,6.83,0,13.67,1.39,21.77,5.31l-5.69,13.41c-7.21-3.16-11.64-4.43-17.08-4.43-11.77,0-18.1,9.24-20.25,22.14l-2.53,15.44c-2.15,12.91,1.52,22.4,13.41,22.4Z"/>
      <path class="cls-2" d="M602.51,206.85l-6.96,39.73h-14.55l16.45-93.64h14.55l-6.96,39.48c9.24-8.98,16.32-11.26,22.27-11.26,12.78,0,18.1,10.25,15.69,23.92l-7.34,41.51h-14.55l7.21-41.25c1.39-7.21-.89-10.63-5.95-10.63-4.05,0-9.87,2.15-19.87,12.15Z"/>
      <path class="cls-2" d="M653.76,246.58l11.26-64.16h14.55l-11.26,64.16h-14.55ZM666.79,170.28l2.66-15.06h15.31l-2.66,15.06h-15.31Z"/>
      <path class="cls-2" d="M703.24,152.94h14.55l-13.29,75.55c-.38,2.53.38,5.31,4.3,5.31h1.52l-2.4,13.41h-2.4c-14.81,0-17.08-9.87-15.44-19.36l13.16-74.91Z"/>
      <path class="cls-2" d="M748.28,247.85c-19.61,0-28.85-12.53-25.56-31.89l1.14-6.58c3.04-17.21,14.3-28.22,29.99-28.22,12.27,0,23.79,6.07,23.79,21.64,0,5.44-1.65,10.88-4.94,16.2h-36.57c-1.27,10.38,2.91,15.69,14.05,15.69,3.67,0,10.12-.76,18.1-3.54l2.02,12.4c-9.24,3.54-15.94,4.3-22.02,4.3ZM738.16,207.86h24.68c.63-1.9.89-3.42.89-5.06,0-5.95-4.18-8.98-10.38-8.98-7.85,0-13.03,4.81-15.18,14.05Z"/>
    </g>
  </g>
</svg>