<?xml version="1.0" encoding="UTF-8"?>
<svg id="Layer_1" data-name="Layer 1" xmlns="http://www.w3.org/2000/svg" viewBox="0 0 195.91 195.91">
  <defs>
    <style>
      .cls-1 {
        fill: #00babc;
        stroke-width: 0px;
      }
    </style>
  </defs>
  <polygon class="cls-1" points="76.7 138.55 75.81 135.41 71.64 138.18 67.1 141.02 62.61 144 59.66 147.98 56.37 151.66 53.93 156.06 54.1 161.09 54.97 166.75 58.71 171.18 64.04 173.16 68.76 171.47 71.79 167.64 73.49 163.17 75.98 158.63 75.05 153.53 76.43 148.55 75.02 143.54 76.7 138.55"/>
  <path class="cls-1" d="M176.32-.15l-5.22.62-5.22-.68-5.22.33-5.22-.09-5.22.27-5.22-.08-5.22.31-5.22-1.05-5.22,1.18-5.22-.23-5.22.31-5.22-.13-5.22-.53-5.22.28-5.22-.52-5.22,1.06-5.23-1.42-5.22-.24-5.22.51-5.22.22-5.22-.68L61.42.03l-5.23-.38-5.23.49-5.23-.87-5.23,1.57-5.23.14-5.23-1.94-5.23.42-5.23-.34-4.93,2.06-4.69,1.74-4.33,2.72-2.75,4.31L-.15,14.3l-.66,5.29.23,5.22,1.29,5.22-1.16,5.22.75,5.22-.46,5.22.97,5.22-1.81,5.22.41,5.22,1.33,5.22-.6,5.22.09,5.22-.14,5.22-.17,5.22.39,5.22.02,5.22.16,5.22-1.43,5.23.25,5.22,1.59,5.22L-.02,124.05l.55,5.22-1.08,5.22.03,5.23,1.06,5.23-.62,5.23.38,5.23-1.07,5.23,1.31,5.23-.84,5.23,1.15,5.23-1.1,5.31,2.75,4.55,3.77,3.45,3.65,3.42,4.36,3.04,5.3-.35,5.22.93,5.22-.36,5.22-.3,5.22-1.08,5.22,1.76,5.22-.31,5.22-.21,5.22.09,5.22.6,5.22-1.85,5.22,1.73,5.22-.63,5.22.27,5.22-1.3,5.22.05,5.22.66,5.23.3,5.22.69,5.22-1.78,5.22.57,5.22.94,5.22-.66,5.23-.07,5.23-.09,5.23.35,5.23-.14,5.23-.65,5.23.31,5.23-.59,5.23.88,5.18-.26,4.39-2.75,4.1-2.9,3.23-3.91,1.61-4.79.64-4.96.52-5.22.26-5.22.49-5.22.06-5.22-1.27-5.22.77-5.22-.42-5.22-.46-5.22,1.02-5.22-.8-5.22,1.19-5.22-1.68-5.22,1.53-5.22-1-5.22v-5.22s-.65-5.22-.65-5.22l1.39-5.23.38-5.22-1.39-5.22-.23-5.22,1.16-5.22-.87-5.22-.23-5.23,1.14-5.23-1.39-5.23.57-5.23-.04-5.23-.02-5.23.46-5.23v-5.23s-.48-5.13-.48-5.13l-2.06-4.73-3.17-4.05-3.67-3.83-5.31-.66-4.93-1.34ZM45.2,27.89l2.75-1.89,5.17-.9,5.04-1.2,5.19-.1,5.2.23,5.06,1.28,6.33,2.31,2.2,6.85-2.96.82h-3.21s-2.59-.83-2.59-.83l-3.96-1.41-4.1-1.25-4.28.14-5.16.09-4.58,2.45-5.05.98-6.07.14,1.29-4.35,3.72-3.36ZM83.44,129.74l.67,4.41-.66,4.35.28,5.47-.03,5.47.17,5.48-.63,5.46-.97,5.44-3.07,4.62-2.07,4.75-4.05,3.23-4.59,2.49-5.24.47-4.91-1.62-4.57-2.3-3.19-3.97-3.49-3.91-.07-5.28v-4.91s.35-4.96.35-4.96l1.59-4.77,3.12-3.96,2.55-4.36,3.84-3.28,3.58-3.58,4.63-2.16,3.51-3.93,4.75-3.1,1.67-4-.53-4.5.25-4.52-1.47-4.48.08-5.09.62-5.06-.34-5.08.99-5.13-.7-5.13-1.85-4.9-4.03-3.19-3.96-3.2-5.47,3.17-1.18,2.98-4.8,3.62-1.75-4.73.8-4.72-.22-4.84,1.65-4.32,1.1-4.46,1.59-4.2-4.48,2.75-4.29,3.21-4.5,2.88-4.98,2.96,4.49-3.22,3.4-3.64,2.49-4.6,4.25-2.77,3.25-3.82,4.38-2.61,3.7,2.4-.19,7.83-1.41,4.48-.74,4.34,4.29,1.02,4.79.27,3.41,3.34,4.01,2.76.6,4.96,2.35,5.09,1.56,5.54-.37,5.68-1.16,5.11,1.03,5.12-.94,5.12.41,4.45.39,4.44.61,3.55,3.96-1.48,3.23-3.74,2.67-4.12,2.1-4.43,1.55-4.79-1.15-5.75.59,6.18.7,5.26-1.5,5.13-1.09,5.49-3.09,4.59-4.08,3.71-4.2,3.54ZM145.27,136.43h-6.64s-3.36-2.39-3.36-2.39l-3.6-1.71.02,3.81.3,4.02-4.07,5.77-4.43-5.6.86-7.03-3.23,3.35-3.54,2.37-7.87.15,2.69-7.28,5.04-3.12,4.1-3.67-2.53-2.82-3.62-2.27-.98-3.35-1.84-4.32-.49-4.88,6.31,2.46,2.01,3.69,3.29,2.58.32-4.12-.6-5.64,3.98-4.9,4.77,4.6.21,5.85-1.83,4.37,4.48-3.49,3.1-3.23,6.42-3.41-.56,7.63-4.31,4.4-2.55,3.46-4,3.14,5.99,3.63,5.24,2.06,2.84,1.65-1.89,4.25ZM149.37,81.05l-4.28-1.49-3.39-3.08-3.11-3.23.98-4.22,1.01-.98,3.61-3.24.81-4.72-1.13-5-4.83-1.64-5.86.14-5.61,2.56-5.47,2.16-3.97-.28-3.54-.4,2.25,3.96,1.46,4.83-2.61,4.38-.36,4.49,3.29,2.33,4.32.7,5.16-3.27-.74,3.84-2.91,3.37-3.65,2.63-4.31-.65-5.14-1.38-3.32-4.35.85-5.37,1.34-7.37-.58-2.91-4.52,1.57-.36.3-3.33,3.21-3.64,2.85-3.43-2.31.11-3.58,4.8-5.65-.47-5.09-2.69-4-4.08.15-3.9.59-4.09,2.07-4.89-.09-3.34,2.37,1.52-4.53,3.67-3.81,4-3.39,4.88-1.18,4.96.14,4.9,1.01,4.18,2.84,3.02,4.11-.15,5.68,5.53,1.14,3.15-4.3,4.28-2.37,4.06-2.65,4.15-.62,3.84-1.29,5.19-1.81,5.28,1.49,4.92,2.28,2.75,4.65,3.3,4.39-.4,5.46-.39,5.57-4.87,3.9,4.67,2.42,4.16,1.71,4.66,2.87-6.01,1.11-5.73.95Z"/>
</svg>